<?xml version="1.0" encoding="utf-8"?>
<!-- Generator: Adobe Illustrator 25.0.0, SVG Export Plug-In . SVG Version: 6.00 Build 0)  -->
<svg version="1.1" id="Capa_1" xmlns="http://www.w3.org/2000/svg" xmlns:xlink="http://www.w3.org/1999/xlink" x="0px" y="0px"
	 viewBox="0 0 105.1 105.1" style="enable-background:new 0 0 105.1 105.1;" xml:space="preserve">
<style type="text/css">
	.st0{fill:#86C1C2;}
	.st1{fill:#EAE4E1;stroke:#EAE4E1;stroke-width:2;stroke-miterlimit:10;}
</style>
<g id="OBJECTS">
	<circle class="st0" cx="52.5" cy="52.5" r="52.5"/>
	<g>
		<path class="st1" d="M73.3,24.1H31.8c-1,0-1.8,0.8-1.8,1.8v0v45.2c0,1,0.8,1.8,1.8,1.8h1.4l0.6,7.1c0.1,0.6,0.6,1,1.2,1h5.3
			c0.6,0,1.1-0.4,1.2-1l0.6-7.1h21l0.6,7.1c0.1,0.6,0.6,1,1.2,1h5.3c0.6,0,1.1-0.4,1.2-1l0.6-7.1h1.4c1,0,1.8-0.8,1.8-1.8V25.9
			C75,24.9,74.3,24.1,73.3,24.1z M40.1,79.6h-4.9l-0.5-6.8h6L40.1,79.6z M69.9,79.6H65l-0.5-6.8h6L69.9,79.6z M73.6,71.1
			c0,0.2-0.2,0.4-2,0.4H30.2c1.4,0,1.2-0.2,1.2-0.4V57h42.2L73.6,71.1z M73.6,55.6H31.4V41.3h42.2L73.6,55.6z M73.6,39.9H31.4v-14
			c0-0.2,0.2-0.4,0.4-0.4l0,0h41.5c0.2,0,0.4,0.2,0.4,0.4L73.6,39.9z"/>
		<path class="st1" d="M40.1,31.3c-0.8,0-1.4,0.6-1.4,1.4s0.6,1.4,1.4,1.4s1.4-0.6,1.4-1.4c0,0,0,0,0,0
			C41.5,31.9,40.8,31.3,40.1,31.3z"/>
		<path class="st1" d="M65,31.3c-0.8,0-1.4,0.6-1.4,1.4c0,0.8,0.6,1.4,1.4,1.4c0.8,0,1.4-0.6,1.4-1.4l0,0
			C66.3,31.9,65.7,31.3,65,31.3z"/>
		<path class="st1" d="M40.1,49.8c0.8,0,1.4-0.6,1.4-1.4c0-0.8-0.6-1.4-1.4-1.4c-0.8,0-1.4,0.6-1.4,1.4c0,0,0,0,0,0
			C38.7,49.2,39.3,49.8,40.1,49.8C40.1,49.8,40.1,49.8,40.1,49.8z"/>
		<path class="st1" d="M65,49.8c0.8,0,1.4-0.6,1.4-1.4c0-0.8-0.6-1.4-1.4-1.4c-0.8,0-1.4,0.6-1.4,1.4c0,0,0,0,0,0
			C63.6,49.2,64.2,49.8,65,49.8C65,49.8,65,49.8,65,49.8z"/>
		<path class="st1" d="M40.1,65.6c0.8,0,1.4-0.6,1.4-1.4c0-0.8-0.6-1.4-1.4-1.4c-0.8,0-1.4,0.6-1.4,1.4l0,0
			C38.7,65,39.3,65.6,40.1,65.6C40.1,65.6,40.1,65.6,40.1,65.6z"/>
		<path class="st1" d="M65,65.6c0.8,0,1.4-0.6,1.4-1.4c0-0.8-0.6-1.4-1.4-1.4c-0.8,0-1.4,0.6-1.4,1.4l0,0C63.6,65,64.2,65.6,65,65.6
			C65,65.6,65,65.6,65,65.6z"/>
	</g>
</g>
</svg>
